<?xml version="1.0" standalone="no"?>
<!DOCTYPE svg PUBLIC "-//W3C//DTD SVG 20010904//EN"
 "http://www.w3.org/TR/2001/REC-SVG-20010904/DTD/svg10.dtd">
<svg version="1.0" xmlns="http://www.w3.org/2000/svg"
 width="640.000000pt" height="640.000000pt" viewBox="0 0 640.000000 640.000000"
 preserveAspectRatio="xMidYMid meet">

<g transform="translate(0.000000,640.000000) scale(0.100000,-0.100000)"
fill="#000000" stroke="none">
<path d="M0 3200 l0 -3200 3200 0 3200 0 0 3200 0 3200 -3200 0 -3200 0 0
-3200z m3475 2065 c-15 -24 -88 -151 -164 -282 l-137 -238 -512 -3 -512 -2 0
-515 0 -515 470 -2 471 -3 -187 -317 -188 -317 -18 29 -18 30 -137 0 c-76 0
-195 -3 -265 -7 l-128 -6 -1 -681 c-2 -580 -4 -669 -14 -601 -12 78 -13 79
-15 30 l-3 -50 -7 55 -7 55 -1 -54 c-2 -46 -4 -52 -17 -41 -13 11 -20 7 -45
-19 -25 -26 -38 -31 -75 -31 -25 0 -45 -4 -45 -10 0 -5 -8 -10 -18 -10 -9 0
-23 -9 -30 -21 -9 -13 -19 -18 -32 -14 -24 7 -72 -4 -64 -16 5 -8 -25 -10
-140 -9 -22 0 -41 1 -42 3 -3 2 -6 3157 -4 3595 0 9 198 12 955 12 l956 0 -26
-45z m1911 -813 c-34 -59 -109 -187 -165 -285 l-103 -177 -509 0 -509 0 0
-515 0 -515 468 -2 468 -3 -72 -123 c-71 -122 -102 -168 -70 -104 9 18 14 38
10 44 -4 6 -3 8 3 5 14 -9 96 129 87 145 -4 6 -3 8 3 5 6 -4 13 -1 16 7 4 11
-28 14 -176 15 -198 2 -239 -5 -60 -11 61 -1 109 -7 106 -12 -3 -4 -17 -6 -32
-3 -15 3 -47 3 -71 -1 l-45 -6 35 -7 c28 -5 20 -7 -35 -9 -58 -2 -64 -3 -37
-10 47 -11 50 -19 5 -13 -29 4 -42 1 -53 -12 -11 -13 -11 -18 -1 -24 6 -4 -13
-6 -44 -3 -51 4 -57 3 -62 -17 -4 -17 -13 -21 -49 -21 -24 0 -44 -4 -44 -9 0
-13 -57 -31 -96 -31 -23 0 -34 -5 -34 -15 0 -10 -14 -17 -40 -21 -33 -5 -38
-9 -29 -21 7 -7 8 -17 4 -21 -4 -4 -10 -1 -12 6 -4 10 -10 9 -30 -3 -14 -9
-49 -19 -79 -22 -30 -3 -54 -10 -54 -14 0 -5 5 -9 11 -9 5 0 7 -5 4 -10 -4 -6
-11 -8 -16 -4 -6 3 -19 -2 -29 -11 -12 -11 -28 -15 -42 -12 -29 8 -88 -13 -88
-30 0 -7 5 -13 12 -13 6 0 9 -2 6 -5 -3 -3 -18 -1 -33 5 -24 9 -32 8 -49 -10
-16 -16 -18 -22 -8 -29 7 -4 -11 -6 -41 -3 -45 3 -57 1 -68 -15 -8 -11 -37
-24 -67 -31 -69 -15 -85 -15 -79 1 3 8 0 14 -6 14 -8 0 -11 -18 -10 -51 1 -29
-4 -11 -11 44 l-13 95 -4 -220 c-3 -121 -5 326 -7 993 l-2 1212 955 0 954 0
-63 -108z m-1003 -1739 c-13 -2 -33 -2 -45 0 -13 2 -3 4 22 4 25 0 35 -2 23
-4z m457 -93 c-6 -11 -13 -20 -16 -20 -2 0 0 9 6 20 6 11 13 20 16 20 2 0 0
-9 -6 -20z m-1210 -190 c0 -5 -7 -10 -15 -10 -8 0 -15 5 -15 10 0 6 7 10 15
10 8 0 15 -4 15 -10z m723 -47 c-7 -2 -19 -2 -25 0 -7 3 -2 5 12 5 14 0 19 -2
13 -5z m85 0 c-10 -2 -28 -2 -40 0 -13 2 -5 4 17 4 22 1 32 -1 23 -4z m105 0
c-13 -2 -33 -2 -45 0 -13 2 -3 4 22 4 25 0 35 -2 23 -4z m-446 -45 c-3 -8 -6
-5 -6 6 -1 11 2 17 5 13 3 -3 4 -12 1 -19z m576 -3 c-3 -9 -8 -14 -10 -11 -3
3 -2 9 2 15 9 16 15 13 8 -4z m-576 -82 c-3 -10 -5 -4 -5 12 0 17 2 24 5 18 2
-7 2 -21 0 -30z m-1949 -520 c-1 -10 2 -25 7 -33 7 -13 6 -13 -7 -2 -9 7 -14
21 -11 32 7 25 15 26 11 3z m-238 -17 c0 -3 -4 -8 -10 -11 -5 -3 -10 -1 -10 4
0 6 5 11 10 11 6 0 10 -2 10 -4z m-174 -32 c27 -15 27 -15 4 -10 -14 3 -34 6
-45 6 -17 0 -17 2 -5 10 19 12 13 13 46 -6z m127 -26 c-2 -5 4 -8 13 -8 10 0
15 -2 12 -5 -3 -3 -31 1 -64 9 l-59 14 51 -1 c29 -1 50 -5 47 -9z m74 -24 c-3
-3 -12 -4 -19 -1 -8 3 -5 6 6 6 11 1 17 -2 13 -5z m73 -14 c20 -6 21 -8 5 -8
-11 0 -31 4 -45 8 -20 6 -21 8 -5 8 11 0 31 -4 45 -8z m211 -7 c12 -16 12 -17
-2 -6 -9 7 -20 9 -24 5 -5 -4 -5 -1 -1 6 9 16 11 15 27 -5z m-154 -9 c-3 -3
-12 -4 -19 -1 -8 3 -5 6 6 6 11 1 17 -2 13 -5z m46 -11 c-7 -2 -19 -2 -25 0
-7 3 -2 5 12 5 14 0 19 -2 13 -5z m44 -9 c-3 -3 -12 -4 -19 -1 -8 3 -5 6 6 6
11 1 17 -2 13 -5z m93 -15 c0 -5 -8 -9 -17 -8 -11 0 -13 3 -5 6 6 2 9 10 6 15
-4 7 -2 8 4 4 7 -4 12 -11 12 -17z"/>
<path d="M1835 1770 c-3 -5 3 -10 14 -10 12 0 21 5 21 10 0 6 -6 10 -14 10 -8
0 -18 -4 -21 -10z"/>
<path d="M1840 1740 c0 -5 5 -10 11 -10 5 0 7 5 4 10 -3 6 -8 10 -11 10 -2 0
-4 -4 -4 -10z"/>
<path d="M1678 1733 c7 -3 16 -2 19 1 4 3 -2 6 -13 5 -11 0 -14 -3 -6 -6z"/>
<path d="M1720 1730 c0 -5 9 -10 20 -10 11 0 20 5 20 10 0 6 -9 10 -20 10 -11
0 -20 -4 -20 -10z"/>
<path d="M1600 1716 c0 -2 13 -6 29 -8 17 -2 28 -1 25 4 -5 8 -54 12 -54 4z"/>
<path d="M4578 2943 c12 -2 32 -2 45 0 12 2 2 4 -23 4 -25 0 -35 -2 -22 -4z"/>
<path d="M4608 2913 c6 -2 18 -2 25 0 6 3 1 5 -13 5 -14 0 -19 -2 -12 -5z"/>
<path d="M4673 2913 c9 -2 25 -2 35 0 9 3 1 5 -18 5 -19 0 -27 -2 -17 -5z"/>
<path d="M4465 2841 c-3 -5 -1 -12 5 -16 5 -3 10 1 10 9 0 18 -6 21 -15 7z"/>
<path d="M3817 2614 c-8 -8 1 -24 14 -24 5 0 9 7 9 15 0 15 -12 20 -23 9z"/>
<path d="M3660 2506 c0 -8 5 -18 10 -21 6 -3 10 3 10 14 0 12 -4 21 -10 21 -5
0 -10 -6 -10 -14z"/>
</g>
</svg>
